<?xml version="1.0" encoding="UTF-8"?>
<svg id="_Слой_1" xmlns="http://www.w3.org/2000/svg" version="1.1" viewBox="0 0 600 183">
  <!-- Generator: Adobe Illustrator 30.0.0, SVG Export Plug-In . SVG Version: 2.1.1 Build 123)  -->
  <defs>
    <style>
      .st0 {
        fill: #fff;
      }
    </style>
  </defs>
  <path class="st0" d="M200,183c-12.42-2.05-27.37-2.82-34.84-14.66-1-1.59-4.16-9.49-4.16-10.84v-84.5h33v69.5c0,10.78,12.15,12.96,20.46,13.54,8.96.63,35.93.99,42.89-3.19,2.55-1.53,5.65-6.6,5.65-9.35v-70.5h33v85.5c0,.58-3.16,7.96-3.82,9.18-5.56,10.31-19.15,14.34-30.18,15.32h-62,0Z"/>
  <path class="st0" d="M409.5,73c8.59.64,20.31,3.13,26.5,9.78,10.25,11.02,10.02,40.74,5.45,54.17-3.74,10.98-11.07,15.81-22.45,17.06l19,27.99h-38.5l-21-27h-28.5v25.5l-1.5,1.5h-31l-1.5-1.5v-52.5h85.5c.27,0,4.34-1.78,4.86-2.14,7.37-4.98,5.72-25.86-3.86-25.86h-86.5v-27h93.5Z"/>
  <path class="st0" d="M160,182h-36l-10-19h-43l11.5-25h18.5l-20.99-38.99-43.01,82.99H1l58.49-108.01c.76-1.04,1.85-.91,2.96-1.04,4.13-.5,37.85-.46,39.55.56l58.01,108.49h0Z"/>
  <g>
    <path class="st0" d="M599,182h-36l-43.01-83-20.99,39h18.5l11.5,25h-43l-10,19h-36l57.99-108.51c1.78-.86,35.54-1.04,39.56-.55,1.1.13,2.19.02,2.96,1.04l58.49,108.01h0Z"/>
    <g>
      <path class="st0" d="M514.5,1c11.13,1.18,21.45,6.75,20.53,19.48-.59,8.1-6.16,11.49-13.05,14.05l14.02,26.47-13.99-.5-13.17-24.33-13.84-.16v25h-14V1c10.72.82,22.98-1.11,33.5,0h0ZM495,26h15.5c1.03,0,7.46-1.73,8.49-2.51,3.19-2.43,2.93-7.42-.6-9.38-.89-.49-7.17-2.11-7.89-2.11h-15.5v14Z"/>
      <polygon class="st0" points="431 1 431 12 390 12 390 25 420 25 420 36 390 36 390 50 432 50 432 61 376 61 376 1 431 1"/>
    </g>
  </g>
  <g>
    <path class="st0" d="M98,0c12.86,1.72,23.25,10.9,25,23.99l-14.04-.45c-3.35-16.73-29.97-16.18-32.72.2-.89,5.28-.81,14.94,1.91,19.61,4.96,8.51,20.17,9.94,26.77,3.07,2.16-2.25,2.95-7.68,4.71-8.29l13.38.38c-3.51,28.11-48.08,31.9-58.19,7.16-7.76-19.02-.07-42.69,22.18-45.67,2.48-.33,8.52-.33,11,0Z"/>
    <path class="st0" d="M306.5,1c13.04,1.55,22.99,11.24,16.7,24.7-1,2.14-3.46,3-3.2,5.28,10.1,4.4,8.74,18.83.49,25.01-3.23,2.42-11.15,5.01-14.99,5.01h-37.5V1c12.18,1.05,26.6-1.41,38.5,0ZM282,25h23.5c5.33,0,8.45-8.37,2.23-11.23-.63-.29-5.91-1.77-6.23-1.77h-19.5v13ZM282,50h19.5c.54,0,7.2-1.57,8.08-1.92,7.19-2.86,2.99-13.08-4.08-13.08h-23.5v15Z"/>
    <path class="st0" d="M181,2l11.09,25.41c1.48,2,3.79,2.68,5.2.34,4.52-7.56,7.64-17.75,11.72-25.75h15l-17.89,37.39-4.11.61v21h-14v-21c-1.03.02-2.33.19-3.27-.19-3.05-1.23-16.28-32.85-19.73-37.81h16,0Z"/>
  </g>
</svg>