<?xml version="1.0" encoding="UTF-8"?>
<svg id="_Слой_1" xmlns="http://www.w3.org/2000/svg" version="1.1" viewBox="0 0 600 183">
  <!-- Generator: Adobe Illustrator 30.0.0, SVG Export Plug-In . SVG Version: 2.1.1 Build 123)  -->
  <defs>
    <style>
      .st0 {
        fill: #fff;
      }
    </style>
  </defs>
  <g>
    <path class="st0" d="M329,1v11h-41v12h24.5c.75,0,6.84,1.53,8.06,1.94,17.29,5.83,16.62,28.28-.73,33.38-1.19.35-7.58,1.68-8.32,1.68h-37.5V1h55,0ZM288,50h19.5c1.16,0,9.1-2.07,10.06-2.94,2.2-1.99,2.2-7.13,0-9.12-.96-.87-8.9-2.94-10.06-2.94h-19.5s0,15,0,15Z"/>
    <g>
      <polygon class="st0" points="436 1 436 12 395 12 395 25 425 25 425 36 395 36 395 50 437 50 437 61 381 61 381 1 436 1"/>
      <path class="st0" d="M500,49v12h-14V1h30.5c3.52,0,12.54,4.11,15.52,6.48,9.59,7.62,10.73,23.77,2.99,33.04-2.16,2.59-12.45,8.48-15.52,8.48h-19.5.01ZM500,12v26h15.5c4.59,0,10.03-5.65,10.52-10.48,1.66-16.44-13.94-15.47-26.02-15.52h0Z"/>
    </g>
  </g>
  <polygon class="st0" points="598 181 562 181 520.99 100 518.16 101.66 499 138 518 138 528 162 486.5 162 475.5 181 440 181 498.46 73.93 540.51 74.99 598 181"/>
  <polygon class="st0" points="181 1 181 39 210.44 1.94 223 1 223 61 209 61 209 24 179.79 60.78 167 61 167 1 181 1"/>
  <g>
    <path class="st0" d="M350,155c-.5.36,1,1.29,1,1.5v22c0,.33-1.32,1.52-1,2.5h-33v-53h85.5c.64,0,5.24-3.06,5.98-4.02,3.09-4.04,3.47-13.73,1.29-18.25-.71-1.47-5.05-5.73-6.27-5.73h-86.5v-27h94.5c2.82,0,13.45,3.2,16.49,4.51,5.83,2.52,9.14,5.35,11.89,11.11,6.63,13.87,7.65,49.77-5.94,59.81-3.63,2.68-16.16,6.57-20.43,6.57h-63.51Z"/>
    <g>
      <path class="st0" d="M263,73h37l-1.19,3.31c-21.75,27.77-40.2,59.47-61.99,87.01-14.85,18.76-29.26,21.7-52.88,17.24-1.33-.9-1.31-18.36-.99-21.11.17-1.45.12-2.57,1.55-3.45h18c.3,0,4.45-2.33,5.23-2.78.83-.48,1.67.3,1.26-1.69l-58.98-78.53h37.5l38.52,49.48,2.47,1.52,34.52-51h-.02Z"/>
      <g>
        <path class="st0" d="M161,181h-36l-10.5-19h-40c-.08,0-2.38,2.41-1.49-.48,2.28-7.4,8.35-16.17,11.49-23.52h17.5l-18.76-36.71-2.22-1.28-42.52,80.99H3l59.46-107.07,42.06,1.06,56.49,106.01h-.01Z"/>
        <polygon class="st0" points="74 2 74 25 92.5 25 104.42 2.92 118 2.01 103.37 30.5 119 61 105 61 92.84 36.16 74 36 74 61 60 61 60 2 74 2"/>
      </g>
    </g>
  </g>
</svg>